name C:\Users\u0101727\Documents\MyRepositories\upper-imu-dc\OpenSim\subject0\MA\ResultsMA\grid_4nodes_9dim\angles_20.mot
datacolumns 10
datarows 23
range 2025.01000000 2025.23000000
endheader 
time	clav_prot	clav_elev	scapula_abduction	scapula_elevation	scapula_upward_rot	scapula_winging	plane_elv	shoulder_elv	axial_rot	
       2025.01000000	        -50.00000000	          0.00000000	        -40.00000000	        -10.00000000	         90.00000000	        -10.00000000	        -30.00000000	        -10.00000000	         90.00000000	
       2025.02000000	        -38.33333333	          0.00000000	        -40.00000000	        -10.00000000	         90.00000000	        -10.00000000	        -30.00000000	        -10.00000000	         90.00000000	
       2025.03000000	        -26.66666667	          0.00000000	        -40.00000000	        -10.00000000	         90.00000000	        -10.00000000	        -30.00000000	        -10.00000000	         90.00000000	
       2025.04000000	        -15.00000000	          0.00000000	        -40.00000000	        -10.00000000	         90.00000000	        -10.00000000	        -30.00000000	        -10.00000000	         90.00000000	
       2025.05000000	        -50.00000000	         10.00000000	        -40.00000000	        -10.00000000	         90.00000000	        -10.00000000	        -30.00000000	        -10.00000000	         90.00000000	
       2025.06000000	        -38.33333333	         10.00000000	        -40.00000000	        -10.00000000	         90.00000000	        -10.00000000	        -30.00000000	        -10.00000000	         90.00000000	
       2025.07000000	        -26.66666667	         10.00000000	        -40.00000000	        -10.00000000	         90.00000000	        -10.00000000	        -30.00000000	        -10.00000000	         90.00000000	
       2025.08000000	        -15.00000000	         10.00000000	        -40.00000000	        -10.00000000	         90.00000000	        -10.00000000	        -30.00000000	        -10.00000000	         90.00000000	
       2025.09000000	        -50.00000000	         20.00000000	        -40.00000000	        -10.00000000	         90.00000000	        -10.00000000	        -30.00000000	        -10.00000000	         90.00000000	
       2025.10000000	        -38.33333333	         20.00000000	        -40.00000000	        -10.00000000	         90.00000000	        -10.00000000	        -30.00000000	        -10.00000000	         90.00000000	
       2025.11000000	        -26.66666667	         20.00000000	        -40.00000000	        -10.00000000	         90.00000000	        -10.00000000	        -30.00000000	        -10.00000000	         90.00000000	
       2025.12000000	        -15.00000000	         20.00000000	        -40.00000000	        -10.00000000	         90.00000000	        -10.00000000	        -30.00000000	        -10.00000000	         90.00000000	
       2025.13000000	        -50.00000000	        -10.00000000	        -21.66666667	        -10.00000000	         90.00000000	        -10.00000000	        -30.00000000	        -10.00000000	         90.00000000	
       2025.14000000	        -38.33333333	        -10.00000000	        -21.66666667	        -10.00000000	         90.00000000	        -10.00000000	        -30.00000000	        -10.00000000	         90.00000000	
       2025.15000000	        -26.66666667	        -10.00000000	        -21.66666667	        -10.00000000	         90.00000000	        -10.00000000	        -30.00000000	        -10.00000000	         90.00000000	
       2025.16000000	        -15.00000000	        -10.00000000	        -21.66666667	        -10.00000000	         90.00000000	        -10.00000000	        -30.00000000	        -10.00000000	         90.00000000	
       2025.17000000	        -50.00000000	          0.00000000	        -21.66666667	        -10.00000000	         90.00000000	        -10.00000000	        -30.00000000	        -10.00000000	         90.00000000	
       2025.18000000	        -38.33333333	          0.00000000	        -21.66666667	        -10.00000000	         90.00000000	        -10.00000000	        -30.00000000	        -10.00000000	         90.00000000	
       2025.19000000	        -26.66666667	          0.00000000	        -21.66666667	        -10.00000000	         90.00000000	        -10.00000000	        -30.00000000	        -10.00000000	         90.00000000	
       2025.20000000	        -15.00000000	          0.00000000	        -21.66666667	        -10.00000000	         90.00000000	        -10.00000000	        -30.00000000	        -10.00000000	         90.00000000	
       2025.21000000	        -50.00000000	         10.00000000	        -21.66666667	        -10.00000000	         90.00000000	        -10.00000000	        -30.00000000	        -10.00000000	         90.00000000	
       2025.22000000	        -38.33333333	         10.00000000	        -21.66666667	        -10.00000000	         90.00000000	        -10.00000000	        -30.00000000	        -10.00000000	         90.00000000	
       2025.23000000	        -26.66666667	         10.00000000	        -21.66666667	        -10.00000000	         90.00000000	        -10.00000000	        -30.00000000	        -10.00000000	         90.00000000	
